<svg xmlns="http://www.w3.org/2000/svg" width="372" height="72" fill="none" viewBox="0 0 372 72">
  <path fill="#fff" d="M0 70V.7h46.8v13.1H15.6v13.6h27.7v12.8H15.6v16.7h33.5V70H0Zm73.945 0c-3.4-6.667-6.867-14.467-10.4-23.4-3.467-8.933-6.767-18.667-9.9-29.2h15.8c.666 2.6 1.433 5.433 2.3 8.5.933 3 1.866 6.067 2.8 9.2 1 3.067 1.966 6.067 2.9 9 1 2.933 1.966 5.6 2.9 8 .866-2.4 1.8-5.067 2.8-8a286.8 286.8 0 0 0 2.9-9c1-3.133 1.933-6.2 2.8-9.2.933-3.067 1.733-5.9 2.4-8.5h15.4c-3.134 10.533-6.467 20.267-10 29.2-3.467 8.933-6.9 16.733-10.3 23.4h-12.4Zm36.813-25.9c0-4.667.7-8.733 2.1-12.2 1.466-3.533 3.366-6.467 5.7-8.8 2.333-2.333 5-4.1 8-5.3 3.066-1.2 6.2-1.8 9.4-1.8 7.466 0 13.366 2.3 17.7 6.9 4.333 4.533 6.5 11.233 6.5 20.1 0 .867-.034 1.833-.1 2.9-.067 1-.134 1.9-.2 2.7h-33.8c.333 3.067 1.766 5.5 4.3 7.3 2.533 1.8 5.933 2.7 10.2 2.7 2.733 0 5.4-.233 8-.7 2.666-.533 4.833-1.167 6.5-1.9l2 12.1c-.8.4-1.867.8-3.2 1.2-1.334.4-2.834.733-4.5 1-1.6.333-3.334.6-5.2.8-1.867.2-3.734.3-5.6.3-4.734 0-8.867-.7-12.4-2.1-3.467-1.4-6.367-3.3-8.7-5.7-2.267-2.467-3.967-5.367-5.1-8.7-1.067-3.333-1.6-6.933-1.6-10.8Zm35-5.7a13.98 13.98 0 0 0-.7-3.7 8.256 8.256 0 0 0-1.7-3.2c-.734-.933-1.7-1.7-2.9-2.3-1.134-.6-2.567-.9-4.3-.9-1.667 0-3.1.3-4.3.9-1.2.533-2.2 1.267-3 2.2-.8.933-1.434 2.033-1.9 3.3-.4 1.2-.7 2.433-.9 3.7h19.7Zm25.898-19.2c2.534-.733 5.8-1.4 9.8-2 4-.667 8.2-1 12.6-1 4.467 0 8.167.6 11.1 1.8 3 1.133 5.367 2.767 7.1 4.9 1.734 2.133 2.967 4.667 3.7 7.6.734 2.933 1.1 6.2 1.1 9.8V70h-14.9V42.1c0-4.8-.633-8.2-1.9-10.2-1.266-2-3.633-3-7.1-3-1.066 0-2.2.067-3.4.2a37.91 37.91 0 0 0-3.2.3V70h-14.9V19.2Zm58.387-14.9 14.9-2.4v15.5h17.9v12.4h-17.9v18.5c0 3.133.533 5.633 1.6 7.5 1.133 1.867 3.367 2.8 6.7 2.8 1.6 0 3.233-.133 4.9-.4 1.733-.333 3.3-.767 4.7-1.3l2.1 11.6c-1.8.733-3.8 1.367-6 1.9-2.2.533-4.9.8-8.1.8-4.067 0-7.433-.533-10.1-1.6-2.667-1.133-4.8-2.667-6.4-4.6-1.6-2-2.733-4.4-3.4-7.2-.6-2.8-.9-5.9-.9-9.3V4.3Zm40.48 39.8c0-4.667.7-8.733 2.1-12.2 1.467-3.533 3.367-6.467 5.7-8.8 2.334-2.333 5-4.1 8-5.3 3.067-1.2 6.2-1.8 9.4-1.8 7.467 0 13.367 2.3 17.7 6.9 4.334 4.533 6.5 11.233 6.5 20.1 0 .867-.033 1.833-.1 2.9-.066 1-.133 1.9-.2 2.7h-33.8c.334 3.067 1.767 5.5 4.3 7.3 2.534 1.8 5.934 2.7 10.2 2.7 2.734 0 5.4-.233 8-.7 2.667-.533 4.834-1.167 6.5-1.9l2 12.1c-.8.4-1.866.8-3.2 1.2-1.333.4-2.833.733-4.5 1-1.6.333-3.333.6-5.2.8-1.866.2-3.733.3-5.6.3-4.733 0-8.866-.7-12.4-2.1-3.466-1.4-6.366-3.3-8.7-5.7-2.266-2.467-3.966-5.367-5.1-8.7-1.066-3.333-1.6-6.933-1.6-10.8Zm35-5.7a13.94 13.94 0 0 0-.7-3.7 8.243 8.243 0 0 0-1.7-3.2c-.733-.933-1.7-1.7-2.9-2.3-1.133-.6-2.566-.9-4.3-.9-1.666 0-3.1.3-4.3.9-1.2.533-2.2 1.267-3 2.2-.8.933-1.433 2.033-1.9 3.3-.4 1.2-.7 2.433-.9 3.7h19.7Zm23.399 5.3c0-3.8.6-7.367 1.8-10.7 1.267-3.4 3.067-6.333 5.4-8.8 2.333-2.533 5.167-4.533 8.5-6 3.333-1.467 7.133-2.2 11.4-2.2 2.8 0 5.367.267 7.7.8 2.333.467 4.6 1.167 6.8 2.1l-3.1 11.9c-1.4-.533-2.933-1-4.6-1.4-1.667-.4-3.533-.6-5.6-.6-4.4 0-7.7 1.367-9.9 4.1-2.133 2.733-3.2 6.333-3.2 10.8 0 4.733 1 8.4 3 11 2.067 2.6 5.633 3.9 10.7 3.9 1.8 0 3.733-.167 5.8-.5 2.067-.333 3.967-.867 5.7-1.6l2.1 12.2c-1.733.733-3.9 1.367-6.5 1.9-2.6.533-5.467.8-8.6.8-4.8 0-8.933-.7-12.4-2.1-3.467-1.467-6.333-3.433-8.6-5.9-2.2-2.467-3.833-5.367-4.9-8.7-1-3.4-1.5-7.067-1.5-11Z"/>
</svg>
